# xmcd CD database file
#
# Track frame offsets:
#	150
#	23378
#	42505
#	61266
#	81082
#	100827
#	116909
#	142259
#	169468
#	183787
#	194411
#	212669
#	236352
#	251032
#	274599
#	292331
#
# Disc length: 4147 seconds
#
# Revision: 1
# Processed by: cddbd v1.5.2PL0 Copyright (c) Steve Scherf et al.
# Submitted via: CDex 1.70beta2
#
DISCID=ef103110
DTITLE=Lars-Luis Linek - Blues in Hamborg - Op Platt
DYEAR=2010
DGENRE=Blues
TTITLE0=Gruvel Gustav
TTITLE1=Iesenbohn Boogie
TTITLE2=Hamborg Umwelthauptstadt
TTITLE3=Willy de Winner
TTITLE4=Spoekenkieker
TTITLE5=Goldschieter
TTITLE6=Tiet
TTITLE7=Fuul as'n Uul
TTITLE8=Iesenbohnpohlenopundooldreiher
TTITLE9=Damplok
TTITLE10=Kredit is Schiet
TTITLE11=Blues in Hamborg
TTITLE12=Harvstiet
TTITLE13=Schampus Allüren
TTITLE14=Mook keen Mess
TTITLE15=European Green Capital
EXTD=YEAR: 2010
EXTT0=
EXTT1=
EXTT2=
EXTT3=
EXTT4=
EXTT5=
EXTT6=
EXTT7=
EXTT8=
EXTT9=
EXTT10=
EXTT11=
EXTT12=
EXTT13=
EXTT14=
EXTT15=
PLAYORDER=
